HIERARCHY
ROOT hip
{
  OFFSET 0 0 0
  CHANNELS 6 Xposition Yposition Zposition Zrotation Yrotation Xrotation
  JOINT abdomen
  {
    OFFSET 0 20.6881 -0.73152
    CHANNELS 3 Zrotation Xrotation Yrotation
    JOINT chest
    {
      OFFSET 0 11.7043 -0.48768
      CHANNELS 3 Zrotation Xrotation Yrotation
      JOINT neck
      {
        OFFSET 0 22.1894 -2.19456
        CHANNELS 3 Zrotation Xrotation Yrotation
        JOINT head
        {
          OFFSET -0.24384 7.07133 1.2192
          CHANNELS 3 Zrotation Xrotation Yrotation
          JOINT leftEye
          {
            OFFSET 4.14528 8.04674 8.04672
            CHANNELS 3 Zrotation Xrotation Yrotation
            End Site
            {
              OFFSET 1 0 0
            }
          }
          JOINT rightEye
          {
            OFFSET -3.6576 8.04674 8.04672
            CHANNELS 3 Zrotation Xrotation Yrotation
            End Site
            {
              OFFSET 1 0 0
            }
          }
        }
      }
      JOINT rCollar
      {
        OFFSET -2.68224 19.2634 -4.8768
        CHANNELS 3 Zrotation Xrotation Yrotation
        JOINT rShldr
        {
          OFFSET -8.77824 -1.95073 1.46304
          CHANNELS 3 Zrotation Xrotation Yrotation
          JOINT rForeArm
          {
            OFFSET -28.1742 -1.7115 0.48768
            CHANNELS 3 Zrotation Xrotation Yrotation
            JOINT rHand
            {
              OFFSET -22.5879 0.773209 7.07136
              CHANNELS 3 Zrotation Xrotation Yrotation
              JOINT rThumb1
              {
                OFFSET -1.2192 -0.487915 3.41376
                CHANNELS 3 Zrotation Xrotation Yrotation
                JOINT rThumb2
                {
                  OFFSET -3.37035 -0.52449 3.41376
                  CHANNELS 3 Zrotation Xrotation Yrotation
                  End Site
                  {
                    OFFSET -1.78271 -1.18214 1.43049
                  }
                }
              }
              JOINT rIndex1
              {
                OFFSET -7.75947 0.938293 5.60832
                CHANNELS 3 Zrotation Xrotation Yrotation
                JOINT rIndex2
                {
                  OFFSET -2.54057 -0.884171 1.56538
                  CHANNELS 3 Zrotation Xrotation Yrotation
                  End Site
                  {
                    OFFSET -1.62519 -0.234802 1.16502
                  }
                }
              }
              JOINT rMid1
              {
                OFFSET -8.24714 1.18213 3.41376
                CHANNELS 3 Zrotation Xrotation Yrotation
                JOINT rMid2
                {
                  OFFSET -3.10165 -0.590103 1.0647
                  CHANNELS 3 Zrotation Xrotation Yrotation
                  End Site
                  {
                    OFFSET -2.48547 -0.328903 0.83742
                  }
                }
              }
              JOINT rRing1
              {
                OFFSET -8.82822 0.546677 1.51678
                CHANNELS 3 Zrotation Xrotation Yrotation
                JOINT rRing2
                {
                  OFFSET -2.60934 -0.819778 -0.0198488
                  CHANNELS 3 Zrotation Xrotation Yrotation
                  End Site
                  {
                    OFFSET -2.33842 -0.294052 0.168128
                  }
                }
              }
              JOINT rPinky1
              {
                OFFSET -8.27202 -0.0477905 -0.4584
                CHANNELS 3 Zrotation Xrotation Yrotation
                JOINT rPinky2
                {
                  OFFSET -1.82734 -0.647385 -0.700984
                  CHANNELS 3 Zrotation Xrotation Yrotation
                  End Site
                  {
                    OFFSET -1.69225 -0.51767 -0.607171
                  }
                }
              }
            }
          }
        }
      }
      JOINT lCollar
      {
        OFFSET 2.68224 19.2634 -4.8768
        CHANNELS 3 Zrotation Xrotation Yrotation
        JOINT lShldr
        {
          OFFSET 8.77824 -1.95073 1.46304
          CHANNELS 3 Zrotation Xrotation Yrotation
          JOINT lForeArm
          {
            OFFSET 28.1742 -1.7115 0.48768
            CHANNELS 3 Zrotation Xrotation Yrotation
            JOINT lHand
            {
              OFFSET 22.5879 0.773209 7.07136
              CHANNELS 3 Zrotation Xrotation Yrotation
              JOINT lThumb1
              {
                OFFSET 1.2192 -0.487915 3.41376
                CHANNELS 3 Zrotation Xrotation Yrotation
                JOINT lThumb2
                {
                  OFFSET 3.37035 -0.52449 3.41376
                  CHANNELS 3 Zrotation Xrotation Yrotation
                  End Site
                  {
                    OFFSET 1.78271 -1.18214 1.43049
                  }
                }
              }
              JOINT lIndex1
              {
                OFFSET 7.75947 0.938293 5.60832
                CHANNELS 3 Zrotation Xrotation Yrotation
                JOINT lIndex2
                {
                  OFFSET 2.54057 -0.884171 1.56538
                  CHANNELS 3 Zrotation Xrotation Yrotation
                  End Site
                  {
                    OFFSET 1.62519 -0.234802 1.16502
                  }
                }
              }
              JOINT lMid1
              {
                OFFSET 8.24714 1.18213 3.41376
                CHANNELS 3 Zrotation Xrotation Yrotation
                JOINT lMid2
                {
                  OFFSET 3.10165 -0.590103 1.0647
                  CHANNELS 3 Zrotation Xrotation Yrotation
                  End Site
                  {
                    OFFSET 2.48547 -0.328903 0.83742
                  }
                }
              }
              JOINT lRing1
              {
                OFFSET 8.82822 0.546677 1.51678
                CHANNELS 3 Zrotation Xrotation Yrotation
                JOINT lRing2
                {
                  OFFSET 2.60934 -0.819778 -0.0198488
                  CHANNELS 3 Zrotation Xrotation Yrotation
                  End Site
                  {
                    OFFSET 2.33842 -0.294052 0.168128
                  }
                }
              }
              JOINT lPinky1
              {
                OFFSET 8.27202 -0.0477905 -0.4584
                CHANNELS 3 Zrotation Xrotation Yrotation
                JOINT lPinky2
                {
                  OFFSET 1.82734 -0.647385 -0.700984
                  CHANNELS 3 Zrotation Xrotation Yrotation
                  End Site
                  {
                    OFFSET 1.69225 -0.51767 -0.607171
                  }
                }
              }
            }
          }
        }
      }
    }
  }
  JOINT rButtock
  {
    OFFSET -8.77824 4.35084 1.2192
    CHANNELS 3 Zrotation Xrotation Yrotation
    JOINT rThigh
    {
      OFFSET 0 -1.70687 -2.19456
      CHANNELS 3 Zrotation Xrotation Yrotation
      JOINT rShin
      {
        OFFSET 0 -36.8199 0.73152
        CHANNELS 3 Zrotation Xrotation Yrotation
        JOINT rFoot
        {
          OFFSET 0.73152 -45.1104 -5.12064
          CHANNELS 3 Zrotation Xrotation Yrotation
          End Site
          {
            OFFSET -1.1221 -3.69964 12.103
          }
        }
      }
    }
  }
  JOINT lButtock
  {
    OFFSET 8.77824 4.35084 1.2192
    CHANNELS 3 Zrotation Xrotation Yrotation
    JOINT lThigh
    {
      OFFSET 0 -1.70687 -2.19456
      CHANNELS 3 Zrotation Xrotation Yrotation
      JOINT lShin
      {
        OFFSET 0 -36.8199 0.73152
        CHANNELS 3 Zrotation Xrotation Yrotation
        JOINT lFoot
        {
          OFFSET -0.73152 -45.1104 -5.12064
          CHANNELS 3 Zrotation Xrotation Yrotation
          End Site
          {
            OFFSET 1.1221 -3.69964 12.103
          }
        }
      }
    }
  }
}
MOTION
Frames:	5
Frame Time:	0.00833333
-15.8618 78.8247 274.242 0.0 0.0 0.0 1.57508 -0.00270758 0.0428972 0.434176 0.00151701 0.0751891 -2.47959e-14 -1.59028e-15 -4.22417e-16 -7.49045e-14 3.18055e-15 -1.36975e-15 -0.0 0.0 0.0 -0.0 0.0 0.0 -1.24752e-14 4.36783e-17 -9.93923e-17 -2.58938e-13 8.44835e-16 -4.57205e-15 -4.49909e-12 1.37281e-12 -6.67917e-14 -5.14621e-11 -1.20295e-12 -9.63708e-13 -1.21403e-10 3.68108e-13 -2.2073e-12 -2.09661e-10 6.3293e-13 -3.81189e-12 -1.21396e-10 3.72125e-13 -2.22003e-12 7.73091 5.47488 0.417314 -1.21402e-10 3.68944e-13 -2.2073e-12 2.90554 0.965183 0.102902 -1.21396e-10 3.68348e-13 -2.20651e-12 10.2786 0.731801 0.0259123 -1.21404e-10 3.67752e-13 -2.20094e-12 2.22167 -0.733487 -0.20892 -1.24731e-14 4.27076e-17 -3.97569e-16 -2.62429e-13 9.56651e-16 -5.96354e-15 -4.49437e-12 -1.31933e-12 -4.45278e-14 -5.14747e-11 1.51096e-12 -9.7325e-13 -1.21413e-10 4.14947e-13 -2.19458e-12 -2.09679e-10 7.12444e-13 -3.78407e-12 -1.21419e-10 4.18641e-13 -2.17868e-12 -7.73091 5.47488 -0.417314 -1.21413e-10 4.1546e-13 -2.19776e-12 -2.90554 0.965183 -0.102902 -1.2142e-10 4.1546e-13 -2.19617e-12 -10.2786 0.731801 -0.0259123 -1.21409e-10 4.14665e-13 -2.20094e-12 -2.22167 -0.733487 0.20892 -2.03217e-16 0.0 -3.88251e-19 1.70404 -6.6041 -0.15929 0.00259237 6.39982 0.0734126 -0.527173 0.199679 0.0639905 2.03217e-16 0.0 3.88251e-19 0.691444 -1.9236 0.00559131 0.00918171 -2.07857 0.075783 0.503577 3.99746 -0.139046
-14.9331 75.867 269.342 -176.115 3.3213 -158.803 3.64152 3.54929 -0.0871432 1.08456 -1.91888 0.192404 -0.195072 0.17125 -0.043215 -1.16032 -4.72282 -0.178814 -0.0 0.0 0.0 -0.0 0.0 0.0 -3.11879e-15 -2.1137e-14 3.17512e-15 21.755 8.65576 -1.50941 -7.86855 -4.80582 10.6636 0.000727541 0.616325 0.0866021 -5.86936e-11 -3.50017e-10 -2.35648e-10 -1.00497e-10 -6.05498e-10 -4.07044e-10 -5.86882e-11 -3.50012e-10 -2.3566e-10 7.73091 5.47488 0.417314 -5.8694e-11 -3.50015e-10 -2.35648e-10 2.90554 0.965183 0.102902 -5.86867e-11 -3.50015e-10 -2.35648e-10 10.2786 0.731801 0.0259123 -5.8699e-11 -3.50014e-10 -2.35644e-10 2.22167 -0.733487 -0.20892 -3.17339e-15 -2.11417e-14 2.87461e-15 -22.7826 13.1811 -0.259636 13.9237 -11.0356 -14.214 -0.00319721 -1.26728 0.177953 -4.72717e-10 9.07273e-10 9.43683e-10 -8.21485e-10 1.56161e-09 1.6302e-09 -4.72724e-10 9.07273e-10 9.43694e-10 -7.73091 5.47488 -0.417314 -4.72719e-10 9.07268e-10 9.43682e-10 -2.90554 0.965183 -0.102902 -4.72727e-10 9.07271e-10 9.43683e-10 -10.2786 0.731801 -0.0259123 -4.72713e-10 9.07271e-10 9.4368e-10 -2.22167 -0.733487 0.20892 -2.03217e-16 0.0 -3.88251e-19 3.62539 -14.0403 -0.510828 0.0188609 16.1641 0.239646 -1.10064 -7.11326 -3.00695 2.03217e-16 0.0 3.88251e-19 3.01101 -14.3255 1.62103 0.0181689 19.0268 -0.198216 0.366316 1.28308 -0.791172
-14.8517 75.6657 268.397 -176.335 3.0388 -158.906 5.84079 7.29667 -0.232517 1.78338 -3.9467 0.315078 -0.396814 0.3497 -0.0826578 -2.41899 -9.69738 -0.360372 -0.0 0.0 0.0 -0.0 0.0 0.0 7.59674e-15 -4.05292e-14 5.0131e-15 45.2771 17.7659 -3.23702 -14.2561 -9.31691 22.1532 -0.000571426 1.28492 0.180584 5.43916e-12 -7.23948e-10 -4.83613e-10 1.11742e-11 -1.2524e-09 -8.3543e-10 5.4429e-12 -7.23943e-10 -4.83625e-10 7.73091 5.47488 0.417314 5.43732e-12 -7.23946e-10 -4.83614e-10 2.90554 0.965183 0.102902 5.44582e-12 -7.23946e-10 -4.83615e-10 10.2786 0.731801 0.0259123 5.4294e-12 -7.23943e-10 -4.83614e-10 2.22167 -0.733487 -0.20892 7.48038e-15 -4.0538e-14 4.70871e-15 -46.7132 27.1055 -0.596402 22.5989 -20.3607 -30.7913 0.00200572 -2.58605 0.363435 -8.50458e-10 1.85139e-09 1.93409e-09 -1.47917e-09 3.18673e-09 3.34116e-09 -8.50464e-10 1.85138e-09 1.93409e-09 -7.73091 5.47488 -0.417314 -8.50462e-10 1.85138e-09 1.93409e-09 -2.90554 0.965183 -0.102902 -8.50469e-10 1.85138e-09 1.93409e-09 -10.2786 0.731801 -0.0259123 -8.50454e-10 1.85138e-09 1.93409e-09 -2.22167 -0.733487 0.20892 -2.03217e-16 0.0 -3.88251e-19 5.5513 -21.9282 -0.913148 -0.0341662 26.4653 0.440159 -2.57007 -14.7464 -6.38984 2.03217e-16 0.0 3.88251e-19 6.32111 -27.3071 3.63036 0.306961 41.2925 -0.618778 0.156919 -1.5589 -1.46867
-14.743 75.4345 267.526 -176.455 2.9856 -158.835 7.82346 10.6531 -0.352803 2.409 -5.75954 0.428674 -0.58444 0.513749 -0.12965 -3.57175 -14.1679 -0.551393 -0.0 0.0 0.0 -0.0 0.0 0.0 1.55941e-14 -6.34985e-14 9.72414e-15 66.7613 25.891 -4.97731 -18.4461 -12.4185 32.7346 -0.00340926 1.84896 0.259927 6.67248e-11 -1.05079e-09 -7.02529e-10 1.17831e-10 -1.81776e-09 -1.21351e-09 6.67272e-11 -1.05078e-09 -7.02539e-10 7.73091 5.47488 0.417314 6.67217e-11 -1.05078e-09 -7.02529e-10 2.90554 0.965183 0.102902 6.67311e-11 -1.05078e-09 -7.02531e-10 10.2786 0.731801 0.0259123 6.67114e-11 -1.05078e-09 -7.02532e-10 2.22167 -0.733487 -0.20892 1.54259e-14 -6.35106e-14 9.41898e-15 -67.8992 39.5396 -0.983425 25.774 -24.7068 -47.2421 0.0140684 -3.80169 0.534906 -1.17533e-09 2.72099e-09 2.83544e-09 -2.0451e-09 4.6834e-09 4.89816e-09 -1.17533e-09 2.72098e-09 2.83544e-09 -7.73091 5.47488 -0.417314 -1.17533e-09 2.72097e-09 2.83544e-09 -2.90554 0.965183 -0.102902 -1.17534e-09 2.72098e-09 2.83544e-09 -10.2786 0.731801 -0.0259123 -1.17532e-09 2.72098e-09 2.83544e-09 -2.22167 -0.733487 0.20892 -2.03217e-16 0.0 -3.88251e-19 7.15693 -28.9077 -1.33683 -0.156051 35.6913 0.67056 -4.73567 -21.4819 -9.76353 2.03217e-16 0.0 3.88251e-19 10.2634 -38.9892 6.05218 1.14764 61.2299 -1.48284 -0.0938109 -4.14254 -2.101
-14.66 75.2048 266.601 -176.696 2.7498 -158.853 9.22599 13.0323 -0.404301 2.83551 -7.03501 0.51795 -0.73711 0.641796 -0.195512 -4.40515 -17.3786 -0.754414 -0.0 0.0 0.0 -0.0 0.0 0.0 1.6796e-14 -9.54104e-14 2.16178e-14 82.04 31.6282 -6.32258 -20.6743 -13.8841 40.343 -0.00568133 2.15164 0.302538 1.20893e-10 -1.25989e-09 -8.48817e-10 2.11952e-10 -2.17926e-09 -1.46581e-09 1.20894e-10 -1.25988e-09 -8.48826e-10 7.73091 5.47488 0.417314 1.20889e-10 -1.25988e-09 -8.48817e-10 2.90554 0.965183 0.102902 1.20898e-10 -1.25988e-09 -8.48819e-10 10.2786 0.731801 0.0259123 1.20877e-10 -1.25988e-09 -8.4882e-10 2.22167 -0.733487 -0.20892 1.6601e-14 -9.54242e-14 2.13197e-14 -82.596 48.2524 -1.29067 26.4958 -24.7798 -58.9299 0.0278649 -4.75962 0.670479 -1.36801e-09 3.40431e-09 3.51415e-09 -2.38163e-09 5.85889e-09 6.07026e-09 -1.36802e-09 3.4043e-09 3.51415e-09 -7.73091 5.47488 -0.417314 -1.36802e-09 3.40429e-09 3.51416e-09 -2.90554 0.965183 -0.102902 -1.36803e-09 3.4043e-09 3.51415e-09 -10.2786 0.731801 -0.0259123 -1.36801e-09 3.4043e-09 3.51416e-09 -2.22167 -0.733487 0.20892 -2.03217e-16 0.0 -3.88251e-19 8.18781 -33.6202 -1.70831 -0.300655 42.2306 0.894029 -6.89665 -26.2043 -12.5532 2.03217e-16 0.0 3.88251e-19 13.9063 -47.5448 8.50211 3.21435 75.3467 -3.52146 -0.325778 -6.08316 -2.61315
